<?xml version="1.0" encoding="utf-8"?>
<!-- Generator: Adobe Illustrator 22.1.0, SVG Export Plug-In . SVG Version: 6.00 Build 0)  -->
<svg version="1.1" id="Layer_1" xmlns="http://www.w3.org/2000/svg" xmlns:xlink="http://www.w3.org/1999/xlink" x="0px" y="0px"
	 viewBox="0 0 700 700" style="enable-background:new 0 0 700 700;" xml:space="preserve">
<style type="text/css">
	.st0{clip-path:url(#SVGID_2_);fill:#DDDDDD;}
	.st1{clip-path:url(#SVGID_4_);fill:#DDDDDD;}
	.st2{clip-path:url(#SVGID_6_);fill:#686868;}
	.st3{clip-path:url(#SVGID_8_);fill:#494949;}
	.st4{clip-path:url(#SVGID_10_);fill:#CCCCCC;}
	.st5{clip-path:url(#SVGID_12_);fill:#BCBCBC;}
	.st6{clip-path:url(#SVGID_14_);fill:#6D6C6C;}
	.st7{clip-path:url(#SVGID_16_);fill:#494949;}
	.st8{clip-path:url(#SVGID_18_);fill:#969595;}
	.st9{clip-path:url(#SVGID_20_);fill:#494949;}
	.st10{clip-path:url(#SVGID_22_);fill:#494949;}
	.st11{clip-path:url(#SVGID_24_);fill:#BCBCBC;}
	.st12{clip-path:url(#SVGID_26_);fill:#DDDDDD;}
	.st13{clip-path:url(#SVGID_28_);fill:#494949;}
	.st14{clip-path:url(#SVGID_30_);fill:#6D6C6C;}
	.st15{clip-path:url(#SVGID_32_);fill:#494949;}
	.st16{clip-path:url(#SVGID_34_);fill:#DDDDDD;}
	.st17{clip-path:url(#SVGID_36_);fill:#969595;}
	.st18{clip-path:url(#SVGID_38_);fill:#494949;}
	.st19{clip-path:url(#SVGID_40_);fill:#BCBCBC;}
</style>
<g>
	<g>
		<defs>
			<rect id="SVGID_1_" width="700" height="700"/>
		</defs>
		<clipPath id="SVGID_2_">
			<use xlink:href="#SVGID_1_"  style="overflow:visible;"/>
		</clipPath>
		<polygon class="st0" points="327,0.5 568.3,301.7 809.5,0.5 		"/>
	</g>
	<g>
		<defs>
			<rect id="SVGID_3_" width="700" height="700"/>
		</defs>
		<clipPath id="SVGID_4_">
			<use xlink:href="#SVGID_3_"  style="overflow:visible;"/>
		</clipPath>
		<polygon class="st1" points="-155,0.5 86.3,301.7 327.5,0.5 		"/>
	</g>
	<g>
		<defs>
			<rect id="SVGID_5_" width="700" height="700"/>
		</defs>
		<clipPath id="SVGID_6_">
			<use xlink:href="#SVGID_5_"  style="overflow:visible;"/>
		</clipPath>
		<polygon class="st2" points="-0.5,0.5 349.5,437.5 699.5,0.5 		"/>
	</g>
	<g>
		<defs>
			<rect id="SVGID_7_" width="700" height="700"/>
		</defs>
		<clipPath id="SVGID_8_">
			<use xlink:href="#SVGID_7_"  style="overflow:visible;"/>
		</clipPath>
		<polygon class="st3" points="327,0.5 568,0 568,302 		"/>
	</g>
	<g>
		<defs>
			<rect id="SVGID_9_" width="700" height="700"/>
		</defs>
		<clipPath id="SVGID_10_">
			<use xlink:href="#SVGID_9_"  style="overflow:visible;"/>
		</clipPath>
		<polygon class="st4" points="699.5,0.5 350.4,0.5 349.5,437.5 		"/>
	</g>
	<g>
		<defs>
			<rect id="SVGID_11_" width="700" height="700"/>
		</defs>
		<clipPath id="SVGID_12_">
			<use xlink:href="#SVGID_11_"  style="overflow:visible;"/>
		</clipPath>
		<polygon class="st5" points="524.5,0.5 699.5,219 874.5,0.5 		"/>
	</g>
	<g>
		<defs>
			<rect id="SVGID_13_" width="700" height="700"/>
		</defs>
		<clipPath id="SVGID_14_">
			<use xlink:href="#SVGID_13_"  style="overflow:visible;"/>
		</clipPath>
		<polygon class="st6" points="349.5,0.5 464.4,144 579.4,0.5 		"/>
	</g>
	<g>
		<defs>
			<rect id="SVGID_15_" width="700" height="700"/>
		</defs>
		<clipPath id="SVGID_16_">
			<use xlink:href="#SVGID_15_"  style="overflow:visible;"/>
		</clipPath>
		<polygon class="st7" points="120.5,0.5 235.4,144 350.4,0.5 		"/>
	</g>
	<g>
		<defs>
			<rect id="SVGID_17_" width="700" height="700"/>
		</defs>
		<clipPath id="SVGID_18_">
			<use xlink:href="#SVGID_17_"  style="overflow:visible;"/>
		</clipPath>
		<polygon class="st8" points="525,0.5 699.5,0 700,218.5 		"/>
	</g>
	<g>
		<defs>
			<rect id="SVGID_19_" width="700" height="700"/>
		</defs>
		<clipPath id="SVGID_20_">
			<use xlink:href="#SVGID_19_"  style="overflow:visible;"/>
		</clipPath>
		<polygon class="st9" points="585.5,0.5 700.4,144 815.4,0.5 		"/>
	</g>
	<g>
		<defs>
			<rect id="SVGID_21_" width="700" height="700"/>
		</defs>
		<clipPath id="SVGID_22_">
			<use xlink:href="#SVGID_21_"  style="overflow:visible;"/>
		</clipPath>
		<polygon class="st10" points="-155,0.5 86,0 86,302 		"/>
	</g>
	<g>
		<defs>
			<rect id="SVGID_23_" width="700" height="700"/>
		</defs>
		<clipPath id="SVGID_24_">
			<use xlink:href="#SVGID_23_"  style="overflow:visible;"/>
		</clipPath>
		<polygon class="st11" points="-174.5,0.5 0.5,219 175.5,0.5 		"/>
	</g>
	<g>
		<defs>
			<rect id="SVGID_25_" width="700" height="700"/>
		</defs>
		<clipPath id="SVGID_26_">
			<use xlink:href="#SVGID_25_"  style="overflow:visible;"/>
		</clipPath>
		<polygon class="st12" points="-114.5,0.5 0.4,144 115.4,0.5 		"/>
	</g>
	<g>
		<defs>
			<rect id="SVGID_27_" width="700" height="700"/>
		</defs>
		<clipPath id="SVGID_28_">
			<use xlink:href="#SVGID_27_"  style="overflow:visible;"/>
		</clipPath>
		<polygon class="st13" points="356,0 464,0 464,144 		"/>
	</g>
	<g>
		<defs>
			<rect id="SVGID_29_" width="700" height="700"/>
		</defs>
		<clipPath id="SVGID_30_">
			<use xlink:href="#SVGID_29_"  style="overflow:visible;"/>
		</clipPath>
		<polygon class="st14" points="350,0.5 235.5,0.5 235.5,144.5 		"/>
	</g>
	<g>
		<defs>
			<rect id="SVGID_31_" width="700" height="700"/>
		</defs>
		<clipPath id="SVGID_32_">
			<use xlink:href="#SVGID_31_"  style="overflow:visible;"/>
		</clipPath>
		<polygon class="st15" points="175.5,0.5 350.5,219 525.5,0.5 		"/>
	</g>
	<g>
		<defs>
			<rect id="SVGID_33_" width="700" height="700"/>
		</defs>
		<clipPath id="SVGID_34_">
			<use xlink:href="#SVGID_33_"  style="overflow:visible;"/>
		</clipPath>
		<polygon class="st16" points="815,0 700.4,0 700,144 		"/>
	</g>
	<g>
		<defs>
			<rect id="SVGID_35_" width="700" height="700"/>
		</defs>
		<clipPath id="SVGID_36_">
			<use xlink:href="#SVGID_35_"  style="overflow:visible;"/>
		</clipPath>
		<polygon class="st17" points="-175,1 -0.5,0.5 0,219 		"/>
	</g>
	<g>
		<defs>
			<rect id="SVGID_37_" width="700" height="700"/>
		</defs>
		<clipPath id="SVGID_38_">
			<use xlink:href="#SVGID_37_"  style="overflow:visible;"/>
		</clipPath>
		<polygon class="st18" points="-109.5,0.5 -0.5,0 -0.5,144.5 		"/>
	</g>
	<g>
		<defs>
			<rect id="SVGID_39_" width="700" height="700"/>
		</defs>
		<clipPath id="SVGID_40_">
			<use xlink:href="#SVGID_39_"  style="overflow:visible;"/>
		</clipPath>
		<polygon class="st19" points="525,1 350.4,0.5 350,219 		"/>
	</g>
</g>
</svg>
