<?xml version="1.0" encoding="utf-8"?>
<!-- Generator: Adobe Illustrator 22.0.1, SVG Export Plug-In . SVG Version: 6.00 Build 0)  -->
<svg version="1.1" id="Layer_1" xmlns="http://www.w3.org/2000/svg" xmlns:xlink="http://www.w3.org/1999/xlink" x="0px" y="0px"
	 viewBox="0 0 700 700" style="enable-background:new 0 0 700 700;" xml:space="preserve">
<style type="text/css">
	.st0{clip-path:url(#SVGID_2_);fill:#DDDDDD;}
	.st1{clip-path:url(#SVGID_2_);fill:#686868;}
	.st2{clip-path:url(#SVGID_2_);fill:#494949;}
	.st3{clip-path:url(#SVGID_2_);fill:#CCCCCC;}
	.st4{clip-path:url(#SVGID_2_);fill:#BCBCBC;}
	.st5{clip-path:url(#SVGID_2_);fill:#6D6C6C;}
	.st6{clip-path:url(#SVGID_2_);fill:#969595;}
</style>
<g>
	<defs>
		<rect id="SVGID_1_" width="700" height="700"/>
	</defs>
	<clipPath id="SVGID_2_">
		<use xlink:href="#SVGID_1_"  style="overflow:visible;"/>
	</clipPath>
	<polygon class="st0" points="809.5,699.5 568.3,398.3 327,699.5 	"/>
	<polygon class="st0" points="327.5,699.5 86.3,398.3 -155,699.5 	"/>
	<polygon class="st1" points="699.5,699.5 349.5,262.5 -0.5,699.5 	"/>
	<polygon class="st2" points="568,398 568,700 327,699.5 	"/>
	<polygon class="st3" points="349.5,262.5 350.4,699.5 699.5,699.5 	"/>
	<polygon class="st4" points="874.5,699.5 699.5,481 524.5,699.5 	"/>
	<polygon class="st5" points="579.4,699.5 464.4,556 349.5,699.5 	"/>
	<polygon class="st2" points="350.4,699.5 235.4,556 120.5,699.5 	"/>
	<polygon class="st6" points="700,481.5 699.5,700 525,699.5 	"/>
	<polygon class="st2" points="815.4,699.5 700.4,556 585.5,699.5 	"/>
	<polygon class="st2" points="86,398 86,700 -155,699.5 	"/>
	<polygon class="st4" points="175.5,699.5 0.5,481 -174.5,699.5 	"/>
	<polygon class="st0" points="115.4,699.5 0.4,556 -114.5,699.5 	"/>
	<polygon class="st2" points="464,556 464,700 356,700 	"/>
	<polygon class="st5" points="235.5,555.5 235.5,699.5 350,699.5 	"/>
	<polygon class="st2" points="525.5,699.5 350.5,481 175.5,699.5 	"/>
	<polygon class="st0" points="700,556 700.4,700 815,700 	"/>
	<polygon class="st6" points="0,481 -0.5,699.5 -175,699 	"/>
	<polygon class="st2" points="-0.5,555.5 -0.5,700 -109.5,699.5 	"/>
	<polygon class="st4" points="350,481 350.4,699.5 525,699 	"/>
</g>
</svg>
