<svg xmlns="http://www.w3.org/2000/svg" viewBox="0 0 115.46 71.02"><defs><style>.cls-1{fill:#f2d261;}</style></defs><title>icon-development</title><g id="Layer_2" data-name="Layer 2"><g id="Layer_1-2" data-name="Layer 1"><g id="icon-dev"><path class="cls-1" d="M1.5,8V8Zm19-.59a3.87,3.87,0,0,0,0-5.91h86.94a6.49,6.49,0,0,1,6.47,5.91Zm-6,0a4.4,4.4,0,0,0,.56-.58,3.78,3.78,0,0,0,.55.58Zm-5.73,0A3.05,3.05,0,0,0,9.27,7a3.73,3.73,0,0,0,.45.44Zm-7.3,0A6.3,6.3,0,0,1,2.47,4.6l.15-.25v.1A3.86,3.86,0,0,0,4,7.41ZM15.12,2.08a3.42,3.42,0,0,0-.56-.58h1.11A3.37,3.37,0,0,0,15.12,2.08ZM9.27,1.94a3.05,3.05,0,0,0-.44-.44h.89A3.73,3.73,0,0,0,9.27,1.94Z"/><path class="cls-1" d="M107.46,3A5,5,0,0,1,112,5.91H23.19a5.39,5.39,0,0,0,0-2.91h84.27m0-3H8A8,8,0,0,0,1.76,3a5,5,0,0,0-.34.46c-.08.11-.15.23-.22.35A7.83,7.83,0,0,0,0,8V63a8,8,0,0,0,8,8h99.46a8,8,0,0,0,8-8V8a8,8,0,0,0-.28-2.09A8,8,0,0,0,107.46,0ZM18.1,6.8a2.35,2.35,0,0,1,0-4.69,2.32,2.32,0,0,1,2.29,2.34A2.32,2.32,0,0,1,18.1,6.8Zm-6,0A2.32,2.32,0,0,1,9.85,4.45a2.29,2.29,0,1,1,4.58,0A2.32,2.32,0,0,1,12.14,6.8Zm-5.73,0A2.32,2.32,0,0,1,4.12,4.45a2.29,2.29,0,1,1,4.58,0A2.32,2.32,0,0,1,6.41,6.8ZM3,13.59V8.91H112.46v4.68ZM8,68a5,5,0,0,1-5-5V16.59H112.46V63a5,5,0,0,1-5,5Z"/></g><path class="cls-1" d="M43.82,35.81V33.09L25.51,42.52v2.13l18.31,9.44V51.36L28.39,43.63v-.08Z"/><path class="cls-1" d="M65.78,27.05l-11,28.61h2.64L68.47,27.05Z"/><path class="cls-1" d="M71,33.09v2.72l15.55,7.74v.08L71,51.36v2.73l18.31-9.4V42.48Z"/></g></g></svg>