<svg xmlns="http://www.w3.org/2000/svg" viewBox="0 0 122 98.28"><defs><style>.cls-1{fill:#f2d261;}</style></defs><title>icon-responsive</title><g id="Layer_2" data-name="Layer 2"><g id="Layer_1-2" data-name="Layer 1"><g id="icon-responsive-v2"><g id="desktop"><path class="cls-1" d="M64.8,70.39v19c0-2.74.36-19,.36-19Z"/><path class="cls-1" d="M107.87,0h-99A5.44,5.44,0,0,0,3.2,5.17V61.79A5.42,5.42,0,0,1,5.73,61c1.83-.08,12.17.08,12.61.09a7.51,7.51,0,0,1,4.37,2.12c1.61,1.79,2.59,3,2.59,5,0,.5,0,1.24.06,2.16l24.25,0c.32,2.28.12,17.09,0,19.16a.26.26,0,0,1-.27.24H32.46a1.2,1.2,0,0,0-1.26,1.15v2.87A1.21,1.21,0,0,0,32.46,95H81.81a1.21,1.21,0,0,0,1.26-1.15V91a1.22,1.22,0,0,0-1.26-1.16H65a.21.21,0,0,1-.22-.2V70.39H83.23c0-2.78,0-6.81.07-10.72h-72l-3.14,0V5.24A.83.83,0,0,1,8.83,5h99a.81.81,0,0,1,.63.24V41.6l5-.07V5.17A5.43,5.43,0,0,0,107.87,0Z"/><rect class="cls-1" x="11.5" y="8.83" width="92.67" height="6.17"/><rect class="cls-1" x="11.5" y="41.67" width="37.5" height="4"/><rect class="cls-1" x="11.5" y="47" width="37.5" height="4"/><rect class="cls-1" x="11.5" y="52.17" width="37.5" height="4"/><rect class="cls-1" x="52.33" y="21.67" width="51.83" height="14.5"/></g><g id="mobile"><path class="cls-1" d="M17,64.09a5,5,0,0,1,5,5V91.28a5,5,0,0,1-5,5H7a5,5,0,0,1-5-5V69.09a5,5,0,0,1,5-5H17m0-2H7a7,7,0,0,0-7,7V91.28a7,7,0,0,0,7,7H17a7,7,0,0,0,7-7V69.09a7,7,0,0,0-7-7Z"/><path class="cls-1" d="M16.33,65.22h-9a4,4,0,0,0-4,4V87.45a4,4,0,0,0,4,4h9a4,4,0,0,0,4-4V69.22A4,4,0,0,0,16.33,65.22ZM18.5,87.74a1.76,1.76,0,0,1-1.76,1.76H6.93a1.76,1.76,0,0,1-1.76-1.76V80.33H18.5ZM18.5,77H5.17V74.5H18.5Zm0-3.5H5.17V71H18.5Zm0-3.67H5.17v-2.5H18.5Z"/><circle class="cls-1" cx="12.19" cy="93.85" r="1.48"/></g><g id="tablet"><path class="cls-1" d="M115,44.49a5,5,0,0,1,5,5V91.28a5,5,0,0,1-5,5H91.26a5,5,0,0,1-5-5V49.49a5,5,0,0,1,5-5H115m0-2H91.26a7,7,0,0,0-7,7V91.28a7,7,0,0,0,7,7H115a7,7,0,0,0,7-7V49.49a7,7,0,0,0-7-7Z"/><circle class="cls-1" cx="102.63" cy="93.85" r="1.48"/><path class="cls-1" d="M113.75,46.37H92.38a4,4,0,0,0-4,4V87.45a4,4,0,0,0,4,4h21.37a4,4,0,0,0,4-4V50.37A4,4,0,0,0,113.75,46.37ZM115.67,84H90.92V74.5h24.75Zm0-24.5H90.92V57h24.75Zm0-3.5H90.92V53.5h24.75Zm0-3.67H90.92v-2.5h24.75Z"/></g></g></g></g></svg>