<svg xmlns="http://www.w3.org/2000/svg" viewBox="0 0 115.67 106.33"><defs><style>.cls-1{fill:#f2d261;}</style></defs><title>icon-prototyping</title><g id="Layer_2" data-name="Layer 2"><g id="Layer_1-2" data-name="Layer 1"><g id="icon-prototype"><path class="cls-1" d="M48.52,48.15A2.52,2.52,0,0,1,51,50.67v50.14a2.52,2.52,0,0,1-2.52,2.52h-43A2.52,2.52,0,0,1,3,100.81V50.67a2.52,2.52,0,0,1,2.52-2.52h43m0-3h-43A5.52,5.52,0,0,0,0,50.67v50.14a5.52,5.52,0,0,0,5.52,5.52h43A5.52,5.52,0,0,0,54,100.81V50.67a5.52,5.52,0,0,0-5.52-5.52Z"/><path class="cls-1" d="M109.67,3a3,3,0,0,1,3,3V55.18a3,3,0,0,1-3,3h-42a3,3,0,0,1-3-3V6a3,3,0,0,1,3-3h42m0-3h-42a6,6,0,0,0-6,6V55.18a6,6,0,0,0,6,6h42a6,6,0,0,0,6-6V6a6,6,0,0,0-6-6Z"/><path class="cls-1" d="M54.4,14.69C50.31,18.78,50.18,26.32,50,34.3a86.25,86.25,0,0,1-.8,12.49,8.82,8.82,0,0,1-3.51,6.06,11.24,11.24,0,0,1-5.4,1.81,4.26,4.26,0,1,0,.27,3,14.26,14.26,0,0,0,6.84-2.34,11.73,11.73,0,0,0,4.76-8A89,89,0,0,0,53,34.35c.13-7.35.24-14.31,3.48-17.54S64.08,13.37,67,13.68v-3C63.47,10.32,58.36,10.72,54.4,14.69ZM36,56l.27-1.47h0Z"/><polygon class="cls-1" points="36.3 54.57 36.02 56.04 36.29 54.57 36.3 54.57"/><polygon class="cls-1" points="36.3 54.57 36.02 56.04 36.29 54.57 36.3 54.57"/><path class="cls-1" d="M67.34,10.77l0,2.88a5.44,5.44,0,0,1,.54.15L67,13.68v-3a22.57,22.57,0,0,1,2.62.42l-.15.37A16.19,16.19,0,0,0,67.34,10.77Z"/><rect class="cls-1" x="4.74" y="55.67" width="18.01" height="5.37"/><rect class="cls-1" x="4.74" y="66.4" width="18.01" height="5.37"/><rect class="cls-1" x="67" y="37.96" width="33.18" height="5.37"/><rect class="cls-1" x="66.84" y="46.36" width="33.18" height="5.37"/><rect class="cls-1" x="22.75" y="79.28" width="25.6" height="21.47"/><path class="cls-1" d="M67,5.37V33.19h33.19V5.37Zm6.48,11.8c-2,0-3.85-.93-4.26-2.84a8,8,0,0,0-1.33-.53s0,0,0,0a5.44,5.44,0,0,0-.54-.15l0-2.88a16.19,16.19,0,0,1,2.12.67l.15-.37h0a4.27,4.27,0,1,1,3.85,6.1Z"/></g></g></g></svg>